name ./resultDataOpenSim/trcMotMarkerGrf/sub06/grf-05-01.mot
datacolumns 19
datarows 12
range 1.59200000 1.63600000
endheader

                time	     ground_force_vx	     ground_force_vy	     ground_force_vz	     ground_force_px	     ground_force_py	     ground_force_pz	   l_ground_force_vx	   l_ground_force_vy	   l_ground_force_vz	   l_ground_force_px	   l_ground_force_py	   l_ground_force_pz	     ground_torque_x	     ground_torque_y	     ground_torque_z	   l_ground_torque_x	   l_ground_torque_y	   l_ground_torque_z	
          1.59200000	        133.54958496	        687.75006055	        -17.02967106	          0.81903224	          0.00000000	          0.10818403	          0.00000000	          0.00000000	          0.00000000	          0.00000000	          0.00000000	          0.00000000	          0.00000000	          4.05096906	          0.00000000	          0.00000000	          0.00000000	          0.00000000	
          1.59600000	        140.36486687	        700.49923205	        -18.61310122	          0.81915510	          0.00000000	          0.10806425	          0.00000000	          0.00000000	          0.00000000	          0.00000000	          0.00000000	          0.00000000	          0.00000000	          4.11208594	          0.00000000	          0.00000000	          0.00000000	          0.00000000	
          1.60000000	        146.90439771	        712.24662920	        -19.59000611	          0.81931795	          0.00000000	          0.10791522	          0.00000000	          0.00000000	          0.00000000	          0.00000000	          0.00000000	          0.00000000	          0.00000000	          4.13596318	          0.00000000	          0.00000000	          0.00000000	          0.00000000	
          1.60400000	        153.06482287	        722.82280834	        -19.89810440	          0.81953041	          0.00000000	          0.10773434	          0.00000000	          0.00000000	          0.00000000	          0.00000000	          0.00000000	          0.00000000	          0.00000000	          4.12878521	          0.00000000	          0.00000000	          0.00000000	          0.00000000	
          1.60800000	        158.81122854	        732.04608773	        -19.58332620	          0.81978981	          0.00000000	          0.10752825	          0.00000000	          0.00000000	          0.00000000	          0.00000000	          0.00000000	          0.00000000	          0.00000000	          4.10148403	          0.00000000	          0.00000000	          0.00000000	          0.00000000	
          1.61200000	        164.20672959	        739.74209102	        -18.77722679	          0.82008798	          0.00000000	          0.10730023	          0.00000000	          0.00000000	          0.00000000	          0.00000000	          0.00000000	          0.00000000	          0.00000000	          4.06648137	          0.00000000	          0.00000000	          0.00000000	          0.00000000	
          1.61600000	        169.42482756	        745.75540766	        -17.65981262	          0.82041464	          0.00000000	          0.10705327	          0.00000000	          0.00000000	          0.00000000	          0.00000000	          0.00000000	          0.00000000	          0.00000000	          4.03426390	          0.00000000	          0.00000000	          0.00000000	          0.00000000	
          1.62000000	        174.71101787	        749.95455976	        -16.43392658	          0.82073864	          0.00000000	          0.10679453	          0.00000000	          0.00000000	          0.00000000	          0.00000000	          0.00000000	          0.00000000	          0.00000000	          4.01090175	          0.00000000	          0.00000000	          0.00000000	          0.00000000	
          1.62400000	        180.28424148	        752.23650301	        -15.30959421	          0.82100164	          0.00000000	          0.10653310	          0.00000000	          0.00000000	          0.00000000	          0.00000000	          0.00000000	          0.00000000	          0.00000000	          3.99743672	          0.00000000	          0.00000000	          0.00000000	          0.00000000	
          1.62800000	        186.23945016	        752.53817712	        -14.46281110	          0.82117647	          0.00000000	          0.10628165	          0.00000000	          0.00000000	          0.00000000	          0.00000000	          0.00000000	          0.00000000	          0.00000000	          3.99116600	          0.00000000	          0.00000000	          0.00000000	          0.00000000	
          1.63200000	        192.52660183	        750.84555386	        -13.97792688	          0.82127838	          0.00000000	          0.10604635	          0.00000000	          0.00000000	          0.00000000	          0.00000000	          0.00000000	          0.00000000	          0.00000000	          3.98765325	          0.00000000	          0.00000000	          0.00000000	          0.00000000	
          1.63600000	        198.99466130	        747.16985807	        -13.82854418	          0.82132172	          0.00000000	          0.10582394	          0.00000000	          0.00000000	          0.00000000	          0.00000000	          0.00000000	          0.00000000	          0.00000000	          3.98197672	          0.00000000	          0.00000000	          0.00000000	          0.00000000	
